<svg xmlns="http://www.w3.org/2000/svg" width="40" height="40" fill="none" viewBox="0 0 40 40">
  <path fill="#0E1534" d="M20 40c11.046 0 20-8.954 20-20V6a6 6 0 0 0-6-6H21v8.774c0 2.002.122 4.076 1.172 5.78a9.999 9.999 0 0 0 6.904 4.627l.383.062a.8.8 0 0 1 0 1.514l-.383.062a10 10 0 0 0-8.257 8.257l-.062.383a.8.8 0 0 1-1.514 0l-.062-.383a10 10 0 0 0-4.627-6.904C12.85 21.122 10.776 21 8.774 21H.024C.547 31.581 9.29 40 20 40Z"></path>
  <path fill="#0E1534" d="M0 19h8.774c2.002 0 4.076-.122 5.78-1.172a10.018 10.018 0 0 0 3.274-3.274C18.878 12.85 19 10.776 19 8.774V0H6a6 6 0 0 0-6 6v13ZM46.455 2a2 2 0 1 1-4 0 2 2 0 0 1 4 0Z"></path>
</svg>

